PathFileType        4      (X/Y/Z)      C:\Users\mrr\Desktop\moco_PFJCF\transformed_exp_static.trc         
DataRate	CameraRate	NumFrames	NumMarkers	Units	OrigDataRate	OrigDataStartFrame	OrigNumFrames
200.0	200.0	4	64	mm	200.0	327	652
Frame#	Time	R.Shoulder			L.Shoulder			R.Clavicle			L.Clavicle			R.Biceps			R.Elbow			R.MElbow			R.Forearm			R.Wrist			L.Biceps			L.Elbow			L.MElbow			L.Forearm			L.Wrist			R.ASIS			L.ASIS			R.PSIS			S2			L.PSIS			R.TH1			R.TH2			R.TH3			R.Knee			R.MKnee			R.SH1			R.SH2			R.SH3			R.SH4			R.Ankle			R.MAnkle			R.Heel			R.MT5			R.Toe			L.TH1			L.TH2			L.TH3			L.TH4			L.Knee			L.MKnee			L.SH1			L.SH2			L.SH3			L.Ankle			L.MAnkle			L.Heel			L.MT5			L.Toe			R_HJC			L_HJC			L.HeelGround			L.ToeGround			L.MT5Ground			L.AnkleJoint			L.AnkleJointGround			L.KneeJoint			R.HeelGround			R.ToeGround			R.MT5Ground			R.AnkleJoint			R.AnkleJointGround			R.KneeJoint			MidASIS			MidPSIS			MidClavicle			
		X1	Y1	Z1	X2	Y2	Z2	X3	Y3	Z3	X4	Y4	Z4	X5	Y5	Z5	X6	Y6	Z6	X7	Y7	Z7	X8	Y8	Z8	X9	Y9	Z9	X10	Y10	Z10	X11	Y11	Z11	X12	Y12	Z12	X13	Y13	Z13	X14	Y14	Z14	X15	Y15	Z15	X16	Y16	Z16	X17	Y17	Z17	X18	Y18	Z18	X19	Y19	Z19	X20	Y20	Z20	X21	Y21	Z21	X22	Y22	Z22	X23	Y23	Z23	X24	Y24	Z24	X25	Y25	Z25	X26	Y26	Z26	X27	Y27	Z27	X28	Y28	Z28	X29	Y29	Z29	X30	Y30	Z30	X31	Y31	Z31	X32	Y32	Z32	X33	Y33	Z33	X34	Y34	Z34	X35	Y35	Z35	X36	Y36	Z36	X37	Y37	Z37	X38	Y38	Z38	X39	Y39	Z39	X40	Y40	Z40	X41	Y41	Z41	X42	Y42	Z42	X43	Y43	Z43	X44	Y44	Z44	X45	Y45	Z45	X46	Y46	Z46	X47	Y47	Z47	X48	Y48	Z48	X49	Y49	Z49	X50	Y50	Z50	X51	Y51	Z51	X52	Y52	Z52	X53	Y53	Z53	X54	Y54	Z54	X55	Y55	Z55	X56	Y56	Z56	X57	Y57	Z57	X58	Y58	Z58	X59	Y59	Z59	X60	Y60	Z60	X61	Y61	Z61	X62	Y62	Z62	X63	Y63	Z63	X64	Y64	Z64	
327	1.63	-262.306	1371.19	-410.47	-260.7049999999999	1386.789	-738.954	-215.32799999999997	1347.048	-557.407	-210.98499999999999	1349.408	-597.222	-199.10699999999997	1192.706	-348.305	-77.07099999999998	1131.106	-298.539	-91.57399999999997	1101.65	-356.081	32.01600000000002	1126.545	-361.727	155.18700000000004	1141.478	-324.103	-157.51799999999994	1239.076	-811.037	-89.45299999999995	1131.516	-841.227	-100.12199999999996	1108.869	-776.541	2.549000000000051	1099.387	-833.534	140.55200000000005	1159.043	-821.286	-133.31299999999996	959.874	-439.919	-140.39899999999994	956.384	-707.392	-310.46299999999997	948.188	-521.727	-315.42499999999995	945.978	-563.462	-320.72999999999996	956.368	-616.216	-183.70999999999998	733.719	-369.112	-274.677	723.227	-419.846	-279.805	591.642	-414.592	-240.97099999999998	484.595	-379.859	-197.80799999999996	462.74	-493.483	-229.23599999999996	407.228	-357.439	-248.74399999999997	302.758	-317.517	-307.241	405.614	-387.136	-322.469	288.645	-359.389	-271.213	104.847	-318.718	-249.10799999999998	104.512	-397.314	-328.851	57.396	-364.903	-163.96499999999997	45.42	-276.845	-111.72599999999998	66.627	-337.121	-172.77799999999993	778.56	-761.553	-176.87799999999993	646.151	-749.915	-277.75899999999996	792.093	-750.366	-290.83199999999994	657.827	-725.024	-251.94399999999993	493.656	-742.537	-239.72599999999997	474.22	-616.514	-221.63299999999995	399.639	-739.044	-314.0779999999999	413.978	-744.293	-323.27699999999993	299.02	-766.703	-281.18899999999996	102.497	-769.166	-268.52099999999996	101.524	-691.036	-346.52599999999995	51.855	-723.3	-179.96499999999995	43.354	-806.533	-126.85799999999996	62.4	-749.396	-179.48399999999998	854.72	-471.115	-195.90399999999997	863.719	-671.092	-346.52599999999995	0.0	-723.3	-126.85799999999996	0.0	-749.396	-179.96499999999995	0.0	-806.533	-274.85499999999996	102.01050000000001	-730.101	-274.85499999999996	0.0	-730.101	-245.83499999999995	483.938	-679.5255	-328.851	0.0	-364.903	-111.72599999999998	0.0	-337.121	-163.96499999999997	0.0	-276.845	-260.1605	104.67949999999999	-358.016	-260.1605	0.0	-358.016	-219.38949999999997	473.6675	-436.671	-136.85599999999997	958.129	-573.6555000000001	-315.59649999999993	952.278	-568.9715	-213.15649999999997	1348.228	-577.3145	
328	1.635	-262.433	1371.079	-410.515	-260.72099999999995	1386.763	-738.971	-215.41199999999998	1346.996	-557.317	-210.99599999999998	1349.331	-597.164	-199.14599999999996	1192.672	-348.099	-77.12799999999999	1132.801	-298.701	-91.53399999999998	1102.361	-356.866	32.00400000000002	1126.422	-361.833	155.17500000000004	1141.463	-324.186	-157.51199999999994	1239.094	-811.042	-89.42799999999994	1131.577	-841.549	-100.23799999999996	1108.644	-776.538	2.538000000000051	1099.389	-833.581	140.49400000000006	1158.971	-821.274	-133.37699999999998	959.572	-440.078	-140.44799999999995	956.427	-707.415	-310.4889999999999	948.25	-521.71	-315.5969999999999	945.976	-563.46	-320.77899999999994	956.471	-616.324	-183.78599999999997	733.594	-368.912	-274.686	722.977	-419.812	-279.811	591.522	-414.46	-240.98099999999997	484.478	-379.803	-197.84599999999998	462.532	-493.275	-229.17299999999997	407.248	-357.372	-248.74099999999999	302.575	-317.476	-307.156	405.561	-387.072	-322.466	288.627	-359.301	-271.203	104.839	-318.733	-249.18099999999998	104.571	-397.7	-328.862	57.357	-364.819	-163.97599999999997	45.296	-276.729	-111.78099999999999	66.603	-337.098	-172.68299999999994	778.356	-760.937	-176.93899999999994	646.094	-749.784	-277.80499999999995	792.113	-750.464	-290.85299999999995	657.82	-725.013	-251.93899999999994	493.648	-742.545	-239.47999999999996	473.908	-616.7	-221.68699999999995	399.666	-739.173	-314.09499999999997	413.98	-744.284	-323.3589999999999	298.956	-766.577	-281.16099999999994	102.493	-769.152	-268.51199999999994	101.406	-691.037	-346.5179999999999	51.82	-723.406	-179.98099999999994	43.3	-806.616	-126.90399999999995	62.298	-749.4	-179.64699999999996	854.519	-471.292	-196.09199999999998	863.761	-671.255	-346.5179999999999	0.0	-723.406	-126.90399999999995	0.0	-749.4	-179.98099999999994	0.0	-806.616	-274.83649999999994	101.9495	-730.0945	-274.83649999999994	0.0	-730.0945	-245.70949999999996	483.778	-679.6225	-328.862	0.0	-364.819	-111.78099999999999	0.0	-337.098	-163.97599999999997	0.0	-276.729	-260.192	104.705	-358.2165	-260.192	0.0	-358.2165	-219.41349999999997	473.505	-436.539	-136.9125	957.9995	-573.7465	-315.63399999999996	952.3605	-569.017	-213.20399999999998	1348.1635	-577.2405	
329	1.64	-262.308	1370.997	-410.424	-260.7749999999999	1386.746	-739.064	-215.45499999999998	1346.929	-557.232	-211.13299999999998	1349.223	-597.144	-199.16499999999996	1192.589	-348.061	-77.11499999999998	1132.784	-298.735	-91.56699999999996	1102.292	-356.867	32.01600000000002	1126.438	-361.868	155.18400000000003	1141.394	-324.07	-157.47799999999995	1239.13	-811.104	-89.45899999999995	1131.678	-841.488	-100.28599999999996	1108.403	-776.501	2.4300000000000512	1099.59	-834.096	140.49600000000007	1159.025	-821.29	-133.37699999999998	959.611	-439.694	-140.43599999999995	956.487	-707.39	-310.56299999999993	948.273	-521.709	-315.51699999999994	945.998	-563.596	-320.8469999999999	956.695	-616.43	-183.83499999999998	733.373	-368.897	-274.714	722.795	-419.767	-279.834	591.43	-414.348	-241.01099999999997	484.372	-379.741	-198.00999999999996	462.654	-493.434	-229.14399999999998	407.05	-357.534	-248.81699999999998	302.283	-317.417	-307.177	405.53	-386.934	-322.486	288.618	-359.151	-271.195	104.821	-318.763	-249.22499999999997	104.587	-397.58	-328.869	57.31	-364.689	-164.00299999999996	45.295	-276.577	-111.75599999999999	66.414	-337.046	-172.72499999999994	778.269	-760.77	-176.90399999999994	645.983	-749.698	-277.82399999999996	792.174	-750.46	-290.84899999999993	657.845	-725.079	-251.94599999999994	493.707	-742.534	-239.41299999999998	473.847	-616.717	-221.69599999999994	399.705	-739.16	-314.08799999999997	414.031	-744.267	-323.31299999999993	299.077	-766.705	-281.40299999999996	102.812	-769.442	-268.49799999999993	101.181	-691.02	-346.52199999999993	51.871	-723.397	-179.98299999999995	43.335	-806.576	-126.88099999999996	62.182	-749.319	-179.75799999999998	854.544	-471.241	-196.03799999999998	863.86	-671.215	-346.52199999999993	0.0	-723.397	-126.88099999999996	0.0	-749.319	-179.98299999999995	0.0	-806.576	-274.9505	101.9965	-730.231	-274.9505	0.0	-730.231	-245.6795	483.777	-679.6255	-328.869	0.0	-364.689	-111.75599999999999	0.0	-337.046	-164.00299999999996	0.0	-276.577	-260.21	104.70400000000001	-358.1715	-260.21	0.0	-358.1715	-219.51049999999995	473.51300000000003	-436.5875	-136.90649999999997	958.049	-573.542	-315.7049999999999	952.484	-569.0695	-213.29399999999998	1348.076	-577.188	
330	1.645	-262.389	1370.928	-410.463	-260.8179999999999	1386.747	-739.155	-215.45699999999997	1346.855	-557.208	-211.11999999999998	1349.174	-597.108	-199.17499999999998	1192.503	-348.201	-77.01899999999999	1132.627	-298.722	-91.51399999999997	1102.1	-356.663	32.02400000000002	1126.498	-361.86	155.19700000000003	1141.371	-323.98	-157.50699999999995	1239.235	-811.079	-89.49699999999994	1131.812	-841.494	-100.30399999999996	1108.196	-776.449	2.397000000000051	1099.689	-834.081	140.41800000000006	1158.936	-821.155	-133.47099999999998	959.375	-439.809	-140.44999999999993	956.577	-707.327	-310.68899999999996	948.519	-521.613	-315.52799999999996	945.747	-563.69	-320.95699999999994	957.05	-616.637	-183.93599999999998	733.173	-369.044	-274.776	722.588	-419.669	-279.804	591.451	-414.021	-240.99799999999996	484.298	-379.767	-197.99899999999997	462.649	-493.441	-229.24799999999996	406.769	-357.741	-248.84199999999998	302.119	-317.415	-307.245	405.347	-386.773	-322.556	288.473	-358.96	-271.148	104.608	-318.721	-249.21399999999997	104.535	-397.563	-328.951	57.281	-364.493	-163.99699999999999	45.204	-276.571	-111.76799999999999	66.445	-336.908	-172.85299999999995	778.586	-761.393	-176.91499999999994	646.068	-749.637	-277.84299999999996	792.27	-750.419	-290.86999999999995	657.975	-724.983	-251.91399999999993	493.856	-742.752	-239.21799999999996	473.804	-617.066	-221.68999999999994	399.785	-739.122	-314.10799999999995	414.129	-744.232	-323.39399999999995	299.125	-766.54	-281.42099999999994	102.843	-769.468	-268.55699999999996	101.014	-691.162	-346.42999999999995	51.813	-723.312	-179.92599999999993	43.313	-806.444	-126.87399999999995	62.14	-749.242	-179.95999999999998	854.4	-471.393	-196.18099999999998	863.969	-671.359	-346.42999999999995	0.0	-723.312	-126.87399999999995	0.0	-749.242	-179.92599999999993	0.0	-806.444	-274.989	101.9285	-730.315	-274.989	0.0	-730.315	-245.56599999999995	483.83	-679.909	-328.951	0.0	-364.493	-111.76799999999999	0.0	-336.908	-163.99699999999999	0.0	-276.571	-260.18100000000004	104.5715	-358.142	-260.18100000000004	0.0	-358.142	-219.49849999999995	473.4735	-436.604	-136.96049999999997	957.976	-573.568	-315.8229999999999	952.7845	-569.125	-213.28849999999997	1348.0145	-577.1579999999999	
